<svg width="365" height="78" viewBox="0 0 365 78" fill="none" xmlns="http://www.w3.org/2000/svg">
<path d="M0 37.081C0 24.9962 9.41562 17.082 21.6673 17.082C33.9189 17.082 43.2478 24.9962 43.2478 37.081C43.2478 49.1659 33.8322 57.0801 21.6673 57.0801C9.50237 57.0801 0 49.7464 0 37.081ZM34.4194 37.081C34.4194 29.9943 29.2545 25.163 21.6673 25.163C14.0801 25.163 8.91515 29.9943 8.91515 37.081C8.91515 44.1678 14 48.9991 21.6673 48.9991C29.3346 48.9991 34.4194 44.1678 34.4194 37.081Z" fill="#111826"/>
<path d="M118.658 33.0847V56.3335H110.077V35.3335C110.077 28.834 106.74 25.1639 101.242 25.1639C94.0748 25.1639 89.9909 30.6624 89.9909 41.5795V56.3268H81.4095V35.3269C81.4095 28.8273 78.0729 25.1572 72.5744 25.1572C65.4876 25.1572 61.3237 30.6558 61.3237 41.5728V56.3202H52.7422V17.8302H61.3237V25.4108C64.3265 19.4918 69.5715 17.0762 75.4037 17.0762C81.7364 17.0762 86.9013 20.3259 88.99 26.4918C91.9929 19.9055 97.6582 17.0762 104.071 17.0762C112.486 17.0762 118.652 22.6615 118.652 33.0781L118.658 33.0847Z" fill="#111826"/>
<path d="M168.572 33.0839V56.3327H159.991V35.3327C159.991 28.8332 156.741 25.163 150.489 25.163C143.322 25.163 138.324 30.6616 138.324 41.5787V56.326H129.742V17.8294H138.324V26.164C141.493 19.9981 146.992 17.082 153.238 17.082C162.32 17.082 168.572 22.6673 168.572 33.0839Z" fill="#111826"/>
<path d="M177.989 5.91896C177.989 2.16873 181.159 0 183.908 0C186.657 0 189.827 2.16873 189.827 5.91896C189.827 9.6692 186.577 11.918 183.908 11.918C181.239 11.918 177.989 9.58245 177.989 5.91896ZM179.658 17.837H188.239V56.3336H179.658V17.8303V17.837Z" fill="#111826"/>
<path d="M236.325 23.668H230.493C232.241 26.0035 233.162 28.9997 233.162 32.3362C233.162 41.2513 226.242 47.6708 214.411 47.6708C208.993 47.6708 205.496 48.0845 205.496 50.5869C205.496 52.5888 207.331 53.3362 212.583 53.3362H221.164C231 53.3362 236.332 57.4201 236.332 65.5011C236.332 73.5821 230.166 77.9996 215.999 77.9996C201.833 77.9996 196.334 73.9157 196.334 66.502C196.334 62.585 198.583 59.502 202.333 57.8338C199.417 56.5859 197.835 54.1703 197.835 50.9205C197.835 46.3362 201.586 44.421 204.502 43.9206C201.833 42.2523 198.583 38.3352 198.583 32.3362C198.583 23.5879 206.083 17.0884 215.913 17.0884C218.915 17.0884 221.665 17.5888 223.994 18.5898L236.325 16.5879V23.6746V23.668ZM212.076 60.7499C206.577 60.7499 204.575 62.7518 204.575 65.5812C204.575 68.9177 208.239 70.5792 215.993 70.5792C224.494 70.5792 228.078 68.911 228.078 65.4143C228.078 61.9177 225.575 60.7499 220.911 60.7499H212.076ZM224.828 32.3362C224.828 27.585 221.331 24.1684 215.913 24.1684C210.494 24.1684 206.911 27.585 206.911 32.3362C206.911 37.0874 210.16 40.584 215.913 40.584C221.331 40.584 224.828 36.9206 224.828 32.3362Z" fill="#111826"/>
<path d="M286.819 37.0811C286.819 49.1659 278.651 57.0801 267.487 57.0801C261.322 57.0801 256.237 54.5777 253.074 49.9933V75.3241H244.492V17.8294H253.074V24.1621C256.323 19.5777 261.322 17.082 267.487 17.082C278.651 17.082 286.819 24.9962 286.819 37.0811ZM277.984 37.0811C277.984 29.7474 272.566 25.083 265.566 25.083C258.065 25.083 253.067 30.5015 253.067 36.9142V37.2479C253.067 43.6673 258.065 49.0791 265.566 49.0791C272.566 49.0791 277.984 44.4948 277.984 37.0811Z" fill="#111826"/>
<path d="M328.733 42.0794C328.733 50.4941 323.148 57.0804 313.986 57.0804C304.236 57.0804 298.571 51.1614 298.571 40.9117V25.3302H290.236V17.8297H298.571V11.0833L307.152 2.41504V17.8297H324.983V25.3302H307.152V40.4979C307.152 46.3301 309.568 48.9993 313.986 48.9993C317.903 48.9993 320.238 45.9965 320.238 42.0794H328.74H328.733Z" fill="#111826"/>
<path d="M364.054 9.15566V4.85156H340.238V9.169H356.587L356.667 9.3425C356.52 9.44927 356.353 9.54269 356.22 9.66948C351.575 14.3072 346.931 18.9516 342.287 23.5961C341.152 24.7305 340.024 25.8582 338.897 26.9926C338.797 27.0927 338.717 27.1928 338.637 27.2996L337.269 28.6675L340.238 31.637L341.619 30.2557C341.739 30.169 341.853 30.0689 341.966 29.9554C347.725 24.19 353.491 18.4245 359.256 12.6657C359.383 12.5389 359.516 12.4188 359.743 12.1986V28.6008H364.067V11.1709C364.067 10.4969 364.067 9.81628 364.067 9.14231L364.054 9.15566Z" fill="#05E283"/>
</svg>
